<svg width="183" height="40" viewBox="0 0 183 40" xmlns="http://www.w3.org/2000/svg"><title>LOGO</title><g fill="#FFF" fill-rule="evenodd"><path d="M42.636 37.597l-.068-.595h-.029c-.264.37-.771.702-1.444.702-.957 0-1.445-.672-1.445-1.355 0-1.14 1.014-1.763 2.84-1.753v-.098c0-.39-.107-1.091-1.074-1.091-.44 0-.898.136-1.23.35l-.195-.565c.39-.253.957-.419 1.552-.419 1.444 0 1.796.984 1.796 1.93v1.763c0 .41.02.81.078 1.13h-.78zm-.126-2.407c-.938-.02-2.001.146-2.001 1.062 0 .555.37.819.81.819.615 0 1.005-.39 1.141-.79a.889.889 0 0 0 .05-.273v-.818zM47.947 31.75h-2v-.72h4.869v.72h-2.01v5.847h-.859V31.75M51.217 34.352c0-.556-.01-1.033-.04-1.471h.752l.03.925h.038c.215-.633.732-1.033 1.308-1.033a.93.93 0 0 1 .244.03v.808a1.29 1.29 0 0 0-.293-.029c-.605 0-1.034.458-1.151 1.102a2.43 2.43 0 0 0-.04.399v2.514h-.848v-3.245M55.54 31.555c.01.292-.205.527-.546.527a.51.51 0 0 1-.517-.527c0-.302.224-.535.537-.535.321 0 .526.233.526.535zm-.956 1.326h.859v4.716h-.859V32.88zM57.005 34.42c0-.604-.02-1.091-.04-1.54h.772l.039.81h.02c.35-.576.907-.917 1.678-.917 1.142 0 2 .965 2 2.398 0 1.695-1.034 2.533-2.147 2.533-.624 0-1.17-.273-1.453-.74h-.02v2.562h-.85V34.42zm.849 1.257c0 .127.02.244.04.35a1.324 1.324 0 0 0 1.287 1.005c.908 0 1.435-.74 1.435-1.823 0-.945-.498-1.754-1.405-1.754-.586 0-1.133.42-1.298 1.063-.03.107-.059.233-.059.35v.81zM63.788 35.53l-.683 2.067h-.878l2.235-6.568h1.024l2.245 6.568h-.907l-.703-2.066h-2.333zm2.157-.662l-.644-1.89c-.146-.429-.244-.819-.341-1.198h-.02c-.097.39-.205.789-.332 1.188l-.644 1.9h1.981zM72.768 30.678v5.7c0 .42.01.897.039 1.219h-.771l-.04-.819h-.018c-.264.526-.84.926-1.61.926-1.142 0-2.021-.965-2.021-2.397-.01-1.569.966-2.534 2.118-2.534.722 0 1.21.341 1.425.722h.02v-2.817h.858zm-.859 4.122c0-.107-.01-.253-.038-.36a1.263 1.263 0 0 0-1.24-.994c-.888 0-1.415.779-1.415 1.822 0 .955.468 1.744 1.395 1.744.576 0 1.103-.38 1.26-1.023.028-.117.038-.234.038-.37V34.8zM74.663 32.88l.927 2.65c.155.43.283.82.38 1.21H76c.107-.39.244-.78.4-1.21l.917-2.65h.898l-1.854 4.717h-.82l-1.796-4.716h.918M80.119 31.555c.01.292-.205.527-.547.527a.51.51 0 0 1-.517-.527c0-.302.224-.535.537-.535.322 0 .527.233.527.535zm-.957 1.326h.86v4.716h-.86V32.88zM81.466 36.72a2.25 2.25 0 0 0 1.132.34c.624 0 .918-.31.918-.7 0-.41-.245-.634-.879-.868-.849-.302-1.25-.77-1.25-1.335 0-.76.615-1.384 1.63-1.384.479 0 .899.137 1.162.293l-.215.623a1.842 1.842 0 0 0-.966-.272c-.508 0-.79.292-.79.643 0 .39.282.565.897.799.82.312 1.24.72 1.24 1.422 0 .828-.644 1.413-1.766 1.413-.518 0-.996-.127-1.328-.322l.215-.652M89.86 35.2c0 1.744-1.21 2.504-2.352 2.504-1.279 0-2.265-.935-2.265-2.426 0-1.579 1.035-2.505 2.343-2.505 1.356 0 2.273.984 2.273 2.427zm-3.748.048c0 1.033.595 1.813 1.435 1.813.82 0 1.434-.77 1.434-1.832 0-.8-.4-1.812-1.415-1.812-1.015 0-1.454.935-1.454 1.831zM91.08 34.352c0-.556-.01-1.033-.038-1.471h.75l.03.925h.04c.214-.633.732-1.033 1.307-1.033a.93.93 0 0 1 .244.03v.808a1.292 1.292 0 0 0-.293-.029c-.605 0-1.034.458-1.151 1.102-.02.116-.04.252-.04.399v2.514h-.848v-3.245M99.982 37.421c-.225.117-.722.273-1.357.273-1.424 0-2.352-.964-2.352-2.407 0-1.451.996-2.504 2.538-2.504.507 0 .956.127 1.19.244l-.195.662c-.205-.117-.527-.224-.995-.224-1.084 0-1.669.8-1.669 1.783 0 1.092.703 1.764 1.64 1.764.487 0 .81-.127 1.053-.234l.147.643M105.341 35.2c0 1.744-1.21 2.504-2.352 2.504-1.28 0-2.265-.935-2.265-2.426 0-1.579 1.035-2.505 2.343-2.505 1.356 0 2.274.984 2.274 2.427zm-3.748.048c0 1.033.596 1.813 1.434 1.813.82 0 1.435-.77 1.435-1.832 0-.8-.4-1.812-1.415-1.812-1.015 0-1.454.935-1.454 1.831zM106.562 34.157c0-.487-.01-.887-.04-1.276h.752l.039.76h.03c.263-.449.702-.868 1.482-.868.645 0 1.132.39 1.337.946h.02c.146-.264.332-.468.527-.614.283-.215.595-.332 1.044-.332.625 0 1.552.41 1.552 2.047v2.777h-.84v-2.67c0-.906-.33-1.452-1.024-1.452-.488 0-.869.36-1.015.78-.04.117-.068.272-.068.429v2.913h-.84V34.77c0-.75-.331-1.296-.985-1.296-.537 0-.927.429-1.064.857a1.181 1.181 0 0 0-.068.42v2.845h-.84v-3.44M114.84 34.42c0-.604-.02-1.091-.04-1.54h.771l.039.81h.02c.351-.576.907-.917 1.678-.917 1.141 0 2 .965 2 2.398 0 1.695-1.034 2.533-2.146 2.533-.625 0-1.172-.273-1.455-.74h-.019v2.562h-.849V34.42zm.848 1.257c0 .127.02.244.039.35a1.325 1.325 0 0 0 1.288 1.005c.908 0 1.434-.74 1.434-1.823 0-.945-.497-1.754-1.404-1.754-.586 0-1.133.42-1.299 1.063a1.39 1.39 0 0 0-.058.35v.81zM123.145 37.597l-.068-.595h-.03c-.264.37-.77.702-1.444.702-.957 0-1.444-.672-1.444-1.355 0-1.14 1.015-1.763 2.84-1.753v-.098c0-.39-.108-1.091-1.074-1.091-.439 0-.898.136-1.23.35l-.194-.565c.39-.253.956-.419 1.55-.419 1.445 0 1.797.984 1.797 1.93v1.763c0 .41.019.81.078 1.13h-.78zm-.127-2.407c-.936-.02-2 .146-2 1.062 0 .555.37.819.81.819.614 0 1.005-.39 1.141-.79a.898.898 0 0 0 .049-.273v-.818zM125.371 34.157c0-.487-.01-.887-.038-1.276h.76l.048.78h.02c.235-.45.781-.888 1.561-.888.655 0 1.67.39 1.67 2.007v2.817h-.859v-2.719c0-.76-.283-1.394-1.093-1.394-.566 0-1.005.4-1.152.878a1.23 1.23 0 0 0-.058.399v2.836h-.859v-3.44M131.11 32.88l1.035 2.787c.108.312.224.682.303.965h.019c.088-.283.186-.643.303-.984l.937-2.767h.907l-1.288 3.361c-.615 1.618-1.035 2.446-1.62 2.953-.42.37-.84.516-1.054.555l-.215-.721c.215-.068.498-.204.752-.42.234-.184.527-.516.721-.954a.602.602 0 0 0 .07-.205.747.747 0 0 0-.06-.223l-1.746-4.346h.937M16.15.165h1.42v15.089h-1.42V.165zM21.078.552l-1.42-.196v14.678l1.42-.284V.552M14.06.356l-1.42.196V14.75l1.42.284V.356M15.206 36.594c.058-.916.107-2.444.107-2.931 0-.488.023-.52-.095-2.026-.118-1.503-.307-2.055-.4-2.665-.094-.608-.284-1.292-.565-2.2-.284-.908-.507-1.383-.894-2.247-.39-.862-1.084-2.078-1.737-3.27-.637-1.16-1.234-2.555-1.467-3.908-.27-1.555-.236-3.356-.188-4.35.047-.994.22-3.559.336-4.887C4.256 10.487.105 16.032.105 22.58c0 8.136 6.566 14.829 14.992 15.662 0 0 .05-.728.109-1.648M18.513 36.594a65.717 65.717 0 0 1-.109-2.931c0-.488-.02-.52.099-2.026.116-1.503.303-2.055.398-2.665.095-.608.283-1.292.564-2.2.283-.908.506-1.383.897-2.247.388-.862 1.083-2.078 1.734-3.27.637-1.16 1.234-2.555 1.468-3.908.27-1.555.236-3.356.187-4.35-.045-.994-.22-3.559-.337-4.887 6.048 2.377 10.199 7.921 10.199 14.469 0 8.137-6.565 14.83-14.992 15.663 0 0-.05-.728-.108-1.648M38.963 8.274h2.926v19h-2.926v-19zM53.695 25.609c-.967 1.203-2.519 1.792-4.478 1.792-2.926 0-4.758-1.818-4.758-4.225 0-2.483 1.857-4.07 5.114-4.097h4.097v-.41c0-1.715-1.095-2.74-3.232-2.74-1.297 0-2.646.462-3.994 1.384l-1.196-2.049c1.883-1.126 3.257-1.715 5.826-1.715 3.486 0 5.445 1.792 5.47 4.788l.026 8.936h-2.875V25.61zm-.025-3.124V21.23h-3.664c-1.909 0-2.8.512-2.8 1.818 0 1.23.993 2.023 2.622 2.023 2.086 0 3.69-1.1 3.842-2.586zM63.185 12.55v1.613h3.537v2.202h-3.537v10.908h-2.9V16.365h-1.782v-2.202h1.782v-1.331c0-3.175 2.315-4.686 4.656-4.686 1.094 0 2.188.307 3.053.947l-1.12 2.254c-.56-.41-1.246-.64-1.857-.64-.992 0-1.832.563-1.832 1.843M80.283 20.462c0 4.097-2.875 6.914-7.048 6.914-4.198 0-7.074-2.817-7.074-6.914 0-4.122 2.876-6.913 7.074-6.913 4.173 0 7.048 2.79 7.048 6.913zm-11.196.026c0 2.637 1.705 4.43 4.148 4.43 2.417 0 4.122-1.793 4.122-4.43 0-2.612-1.705-4.404-4.122-4.404-2.443 0-4.148 1.792-4.148 4.404zM94.861 27.273h-2.926V24.61c-.915 1.895-2.62 2.74-4.834 2.766-3.104 0-4.962-1.997-4.962-5.25v-8.475h2.927v7.656c0 2.049 1.195 3.303 3.154 3.303 2.341-.051 3.715-1.869 3.715-4.25v-6.709h2.926v13.622M101.349 16.365c.916-1.843 2.544-2.816 4.681-2.816v2.816c-2.722-.153-4.452 1.46-4.681 3.79v7.118h-2.926V13.651h2.926v2.714M118.828 15.776l-1.603 1.895c-.941-.973-2.239-1.562-3.867-1.536-2.341 0-4.02 1.767-4.02 4.353s1.679 4.353 4.02 4.353c1.704 0 3.079-.564 3.995-1.64l1.628 1.64c-1.221 1.613-3.18 2.535-5.75 2.535-4.02 0-6.82-2.791-6.82-6.888 0-4.123 2.8-6.94 6.82-6.94 2.442 0 4.35.794 5.597 2.228M134.374 18.798v8.475h-2.926v-7.656c0-2.048-1.222-3.303-3.257-3.303-2.417.026-3.868 1.844-3.868 4.25v6.71h-2.926v-19h2.926v8.04c.967-1.92 2.698-2.765 5.013-2.765 3.155 0 5.038 1.997 5.038 5.249M149.435 21.589h-10.228c.458 2.1 2.061 3.405 4.198 3.405 1.476 0 2.825-.563 3.817-1.587l1.552 1.664c-1.323 1.46-3.257 2.305-5.598 2.305-4.173 0-6.92-2.791-6.92-6.888 0-4.123 2.824-6.914 6.844-6.94 4.758 0 6.692 3.125 6.335 8.04zm-2.544-2.15c-.102-2.203-1.552-3.535-3.766-3.535-2.137 0-3.638 1.357-3.97 3.534h7.736zM159.383 26.403c-1.068.64-2.188.998-3.333.998-2.035 0-3.791-1.178-3.791-3.968v-7.068h-1.909v-2.202h1.909v-3.738h2.9v3.738h3.995v2.202h-3.994v6.53c0 1.408.534 1.843 1.45 1.843.61 0 1.247-.205 2.035-.589l.738 2.254M168.975 26.403c-1.069.64-2.188.998-3.333.998-2.036 0-3.791-1.178-3.791-3.968v-7.068h-1.909v-2.202h1.909v-3.738h2.9v3.738h3.995v2.202h-3.994v6.53c0 1.408.534 1.843 1.45 1.843.61 0 1.247-.205 2.035-.589l.738 2.254M182.663 21.589h-10.228c.458 2.1 2.061 3.405 4.198 3.405 1.476 0 2.825-.563 3.817-1.587l1.552 1.664c-1.323 1.46-3.257 2.305-5.598 2.305-4.172 0-6.92-2.791-6.92-6.888 0-4.123 2.824-6.914 6.844-6.94 4.758 0 6.692 3.125 6.335 8.04zm-2.544-2.15c-.101-2.203-1.552-3.535-3.766-3.535-2.137 0-3.638 1.357-3.969 3.534h7.735z"/></g></svg>
